<svg width="49" height="49" viewBox="0 0 49 49" fill="none" xmlns="http://www.w3.org/2000/svg">
<rect x="0.5" y="0.660156" width="48" height="48" rx="24" fill="#EDF4FF"/>
<path d="M14.0477 36.6602V19.4602L11.5 13.7935L13.8518 12.6602L16.9221 19.3935H32.0779L35.1482 12.6602L37.5 13.7935L34.9523 19.4602V36.6602H14.0477ZM21.8869 27.3268H27.1131C27.4832 27.3268 27.7938 27.1988 28.0446 26.9428C28.2955 26.6868 28.4205 26.3704 28.4196 25.9935C28.4187 25.6166 28.2933 25.3002 28.0433 25.0442C27.7933 24.7882 27.4832 24.6602 27.1131 24.6602H21.8869C21.5167 24.6602 21.2067 24.7882 20.9567 25.0442C20.7067 25.3002 20.5813 25.6166 20.5804 25.9935C20.5795 26.3704 20.705 26.6873 20.9567 26.9442C21.2084 27.201 21.5185 27.3286 21.8869 27.3268ZM16.6608 33.9935H32.3392V22.0602H16.6608V33.9935Z" fill="#2563EB"/>
</svg>
