<svg width="44" height="45" viewBox="0 0 44 45" fill="none" xmlns="http://www.w3.org/2000/svg">
<rect y="0.660156" width="44" height="44" rx="22" fill="#FFF1F3"/>
<path d="M9 14.8602C9 13.481 9.54786 12.1584 10.523 11.1832C11.4982 10.208 12.8209 9.66016 14.2 9.66016H29.8C31.1791 9.66016 32.5018 10.208 33.477 11.1832C34.4521 12.1584 35 13.481 35 14.8602V30.4602C35 31.8393 34.4521 33.1619 33.477 34.1371C32.5018 35.1123 31.1791 35.6602 29.8 35.6602H14.2C12.8209 35.6602 11.4982 35.1123 10.523 34.1371C9.54786 33.1619 9 31.8393 9 30.4602V14.8602Z" stroke="#F30C60" stroke-width="2" stroke-linecap="round" stroke-linejoin="round"/>
<path d="M17.4502 21.3604C19.2451 21.3604 20.7002 19.9053 20.7002 18.1104C20.7002 16.3154 19.2451 14.8604 17.4502 14.8604C15.6553 14.8604 14.2002 16.3154 14.2002 18.1104C14.2002 19.9053 15.6553 21.3604 17.4502 21.3604Z" stroke="#F30C60" stroke-width="2" stroke-linecap="round" stroke-linejoin="round"/>
<path d="M25.284 23.4675L14.2002 35.6602H29.9731C31.3064 35.6602 32.585 35.1306 33.5278 34.1878C34.4706 33.2451 35.0002 31.9664 35.0002 30.6331V30.4602C35.0002 29.8544 34.7727 29.6217 34.3632 29.1732L29.1242 23.4597C28.88 23.1934 28.583 22.9809 28.2521 22.8357C27.9212 22.6906 27.5637 22.616 27.2024 22.6167C26.841 22.6174 26.4838 22.6935 26.1535 22.84C25.8232 22.9865 25.5271 23.2002 25.284 23.4675Z" stroke="#F30C60" stroke-width="2" stroke-linecap="round" stroke-linejoin="round"/>
</svg>
