<svg width="24" height="24" viewBox="0 0 24 24" fill="none" xmlns="http://www.w3.org/2000/svg">
<path d="M9.5 14C3.875 14 2.15625 18 2 20H17C16.8438 18 15.125 14 9.5 14Z" stroke="#344054" stroke-width="1.5" stroke-linecap="round" stroke-linejoin="round"/>
<circle cx="9.5" cy="7.5" r="3.5" stroke="#344054" stroke-width="1.5"/>
<path d="M16.8531 10.9148C17.2318 11.0163 17.629 11.0273 18.0128 10.9469C18.3965 10.8665 18.7559 10.697 19.062 10.452C19.3682 10.2071 19.6124 9.89361 19.775 9.53686C19.9376 9.18012 20.014 8.79014 19.9981 8.39841C19.9822 8.00668 19.8743 7.62419 19.6833 7.28183C19.4922 6.93947 19.2234 6.64684 18.8984 6.42757C18.5734 6.2083 18.2014 6.06854 17.8124 6.01957C17.4234 5.97061 17.0283 6.01382 16.6591 6.1457" stroke="#344054" stroke-width="1.5" stroke-linecap="round"/>
<path d="M19.9123 20H23C22.8678 18.255 21.6482 15.0751 18 14" stroke="#344054" stroke-width="1.5" stroke-linecap="round" stroke-linejoin="round"/>
</svg>
