<svg width="24" height="24" viewBox="0 0 24 24" fill="none" xmlns="http://www.w3.org/2000/svg">
<path d="M19.5618 7C19.6155 6.69354 19.6015 6.37903 19.5208 6.07857C19.44 5.7781 19.2944 5.49895 19.0943 5.26071C18.8942 5.02248 18.6444 4.83093 18.3624 4.69951C18.0803 4.5681 17.773 4.5 17.4618 4.5H6.53784C6.22671 4.5 5.91935 4.5681 5.63733 4.69951C5.35531 4.83093 5.10548 5.02248 4.90536 5.26071C4.70524 5.49895 4.55969 5.7781 4.47892 6.07857C4.39816 6.37903 4.38414 6.69354 4.43784 7M17.4998 4.5C17.5278 4.24 17.5428 4.111 17.5428 4.004C17.5439 3.50969 17.3619 3.0325 17.0319 2.66446C16.7019 2.29643 16.2473 2.06364 15.7558 2.011C15.6498 2 15.5198 2 15.2598 2H8.73984C8.47984 2 8.34884 2 8.24284 2.011C7.75134 2.06364 7.29675 2.29643 6.96676 2.66446C6.63677 3.0325 6.45476 3.50969 6.45584 4.004C6.45584 4.111 6.46984 4.241 6.49884 4.5M2.38384 13.793C1.93684 10.629 1.71384 9.048 2.66184 8.023C3.60984 7 5.29784 7 8.67184 7H15.3278C18.7018 7 20.3898 7 21.3378 8.024C22.2858 9.048 22.0618 10.629 21.6158 13.793L21.1938 16.793C20.8438 19.273 20.6688 20.514 19.7718 21.257C18.8748 22 17.5518 22 14.9048 22H9.09484C6.44884 22 5.12484 22 4.22784 21.257C3.33084 20.514 3.15584 19.274 2.80584 16.793L2.38384 13.793Z" stroke="#1D2939" stroke-width="1.5"/>
<path d="M16.5 13C17.3284 13 18 12.3284 18 11.5C18 10.6716 17.3284 10 16.5 10C15.6716 10 15 10.6716 15 11.5C15 12.3284 15.6716 13 16.5 13Z" stroke="#1D2939" stroke-width="1.5"/>
<path d="M19.9997 20L17.1157 17.851C16.1857 17.159 14.7997 17.09 13.7757 17.685L13.5097 17.84C12.7977 18.254 11.8297 18.185 11.2157 17.676L7.37668 14.499C6.61068 13.865 5.38168 13.831 4.56668 14.421L3.24268 15.381" stroke="#1D2939" stroke-width="1.5" stroke-linecap="round"/>
</svg>
