<svg width="128" height="128" viewBox="0 0 128 128" fill="none" xmlns="http://www.w3.org/2000/svg">
<g clip-path="url(#clip0_4064_23342)">
<path d="M58.8319 45.1679C58.46 44.796 58.0185 44.501 57.5326 44.2997C57.0467 44.0985 56.5259 43.9949 55.9999 43.9949C55.474 43.9949 54.9532 44.0985 54.4673 44.2997C53.9813 44.501 53.5398 44.796 53.1679 45.1679C52.796 45.5398 52.501 45.9813 52.2997 46.4673C52.0985 46.9532 51.9949 47.474 51.9949 47.9999C51.9949 48.5259 52.0985 49.0467 52.2997 49.5326C52.501 50.0185 52.796 50.46 53.1679 50.8319L62.3439 59.9999L53.1679 69.1679C52.796 69.5398 52.501 69.9813 52.2997 70.4673C52.0985 70.9532 51.9949 71.474 51.9949 71.9999C51.9949 72.5259 52.0985 73.0467 52.2997 73.5326C52.501 74.0185 52.796 74.46 53.1679 74.8319C53.5398 75.2038 53.9813 75.4988 54.4673 75.7001C54.9532 75.9014 55.474 76.005 55.9999 76.005C56.5259 76.005 57.0467 75.9014 57.5326 75.7001C58.0185 75.4988 58.46 75.2038 58.8319 74.8319L67.9999 65.6559L77.1679 74.8319C77.919 75.583 78.9377 76.005 79.9999 76.005C81.0621 76.005 82.0808 75.583 82.8319 74.8319C83.583 74.0808 84.005 73.0621 84.005 71.9999C84.005 70.9377 83.583 69.919 82.8319 69.1679L73.6559 59.9999L82.8319 50.8319C83.583 50.0808 84.005 49.0621 84.005 47.9999C84.005 46.9377 83.583 45.919 82.8319 45.1679C82.0808 44.4168 81.0621 43.9949 79.9999 43.9949C78.9377 43.9949 77.919 44.4168 77.1679 45.1679L67.9999 54.3439L58.8319 45.1679Z" fill="#98A2B3"/>
<path d="M4 8C2.93913 8 1.92172 8.42143 1.17157 9.17157C0.421427 9.92172 0 10.9391 0 12C0 13.0609 0.421427 14.0783 1.17157 14.8284C1.92172 15.5786 2.93913 16 4 16H12.88L16.088 28.856L28.072 92.736C28.2436 93.6526 28.73 94.4805 29.4473 95.0765C30.1645 95.6725 31.0675 95.9991 32 96H40C35.7565 96 31.6869 97.6857 28.6863 100.686C25.6857 103.687 24 107.757 24 112C24 116.243 25.6857 120.313 28.6863 123.314C31.6869 126.314 35.7565 128 40 128C44.2435 128 48.3131 126.314 51.3137 123.314C54.3143 120.313 56 116.243 56 112C56 107.757 54.3143 103.687 51.3137 100.686C48.3131 97.6857 44.2435 96 40 96H96C91.7565 96 87.6869 97.6857 84.6863 100.686C81.6857 103.687 80 107.757 80 112C80 116.243 81.6857 120.313 84.6863 123.314C87.6869 126.314 91.7565 128 96 128C100.243 128 104.313 126.314 107.314 123.314C110.314 120.313 112 116.243 112 112C112 107.757 110.314 103.687 107.314 100.686C104.313 97.6857 100.243 96 96 96H104C104.933 95.9991 105.835 95.6725 106.553 95.0765C107.27 94.4805 107.756 93.6526 107.928 92.736L119.928 28.736C120.036 28.1587 120.016 27.5647 119.868 26.9961C119.721 26.4276 119.45 25.8985 119.075 25.4464C118.7 24.9944 118.23 24.6304 117.699 24.3804C117.167 24.1304 116.587 24.0005 116 24H23.12L19.88 11.032C19.6641 10.1663 19.1649 9.39759 18.4618 8.8482C17.7588 8.29881 16.8923 8.00025 16 8H4ZM35.32 88L24.816 32H111.184L100.68 88H35.32ZM48 112C48 114.122 47.1571 116.157 45.6569 117.657C44.1566 119.157 42.1217 120 40 120C37.8783 120 35.8434 119.157 34.3431 117.657C32.8429 116.157 32 114.122 32 112C32 109.878 32.8429 107.843 34.3431 106.343C35.8434 104.843 37.8783 104 40 104C42.1217 104 44.1566 104.843 45.6569 106.343C47.1571 107.843 48 109.878 48 112ZM104 112C104 114.122 103.157 116.157 101.657 117.657C100.157 119.157 98.1217 120 96 120C93.8783 120 91.8434 119.157 90.3431 117.657C88.8429 116.157 88 114.122 88 112C88 109.878 88.8429 107.843 90.3431 106.343C91.8434 104.843 93.8783 104 96 104C98.1217 104 100.157 104.843 101.657 106.343C103.157 107.843 104 109.878 104 112Z" fill="#98A2B3"/>
</g>
<defs>
<clipPath id="clip0_4064_23342">
<rect width="128" height="128" fill="white"/>
</clipPath>
</defs>
</svg>
