<svg width="48" height="49" viewBox="0 0 48 49" fill="none" xmlns="http://www.w3.org/2000/svg">
<rect y="0.660156" width="48" height="48" rx="24" fill="#ECFDF3"/>
<path d="M24.0049 28.0002H24.0749C25.5749 28.0402 26.7749 29.2602 26.7749 30.7602C26.7749 32.0402 25.9049 33.1102 24.7249 33.4302V34.5502C24.7249 34.9502 24.4049 35.2702 24.0049 35.2702C23.6049 35.2702 23.2849 34.9502 23.2849 34.5502V33.4302C22.6974 33.272 22.1783 32.9248 21.8078 32.4423C21.4372 31.9597 21.2359 31.3686 21.2349 30.7602C21.2349 30.3602 21.5549 30.0402 21.9549 30.0402C22.3549 30.0402 22.6749 30.3602 22.6749 30.7602C22.6749 31.5002 23.2649 32.0902 23.9949 32.0902C24.7249 32.0902 25.3249 31.4902 25.3249 30.7602C25.3249 30.0302 24.7249 29.4302 23.9949 29.4302H23.9249C23.2055 29.4106 22.5221 29.1114 22.0198 28.5961C21.5175 28.0807 21.2359 27.3898 21.2349 26.6702C21.2349 25.3902 22.1049 24.3202 23.2849 24.0002V22.8802C23.2849 22.4802 23.6049 22.1602 24.0049 22.1602C24.4049 22.1602 24.7249 22.4802 24.7249 22.8802V24.0002C25.9049 24.3202 26.7749 25.3902 26.7749 26.6702C26.7749 27.0702 26.4549 27.3902 26.0549 27.3902C25.6549 27.3902 25.3349 27.0702 25.3349 26.6702C25.3349 25.9402 24.7349 25.3402 24.0049 25.3402C23.2749 25.3402 22.6749 25.9402 22.6749 26.6702C22.6749 27.4002 23.2749 28.0002 24.0049 28.0002Z" fill="url(#paint0_linear_3813_18241)"/>
<path d="M18.697 13.755L21.483 17.015L21.182 17.351C15.448 18.637 11.165 23.758 11.165 29.88C11.165 35.262 15.533 39.63 20.915 39.63H27.085C32.467 39.63 36.835 35.263 36.835 29.881C36.845 23.758 32.562 18.637 26.828 17.351C26.8516 17.1396 26.8134 16.926 26.718 16.736L29.088 14.023L29.241 13.787C29.4197 13.3973 29.4654 12.9597 29.3711 12.5415C29.2768 12.1234 29.0478 11.7477 28.7192 11.4724C28.3906 11.1971 27.9807 11.0374 27.5524 11.0178C27.1242 10.9982 26.7014 11.1198 26.349 11.364L25.506 10.364C25.3169 10.1524 25.0854 9.98295 24.8264 9.86682C24.5675 9.75068 24.287 9.69042 24.0032 9.68994C23.7194 9.68947 23.4386 9.74881 23.1793 9.86408C22.92 9.97936 22.6878 10.148 22.498 10.359L21.615 11.345C21.2636 11.0958 20.8398 10.9693 20.4093 10.9851C19.9787 11.001 19.5654 11.1582 19.2332 11.4326C18.901 11.7069 18.6684 12.0831 18.5715 12.5029C18.4746 12.9227 18.5187 13.3628 18.697 13.755ZM22.496 15.14L20.8 13.18C21.1941 13.3695 21.6399 13.4232 22.0677 13.3328C22.4955 13.2423 22.8814 13.0128 23.165 12.68L23.965 11.642L24.853 12.694C25.1299 13.0159 25.5034 13.2398 25.9179 13.3323C26.3323 13.4247 26.7656 13.3808 27.153 13.207L25.465 15.14H22.496ZM13.165 29.88C13.165 23.892 18.017 19.04 24.005 19.04C29.993 19.04 34.845 23.892 34.835 29.878V29.88C34.8342 31.9352 34.0175 33.9059 32.5642 35.3592C31.111 36.8124 29.1402 37.6292 27.085 37.63H20.915C18.8599 37.6292 16.8891 36.8124 15.4358 35.3592C13.9826 33.9059 13.1658 31.9352 13.165 29.88Z" fill="url(#paint1_linear_3813_18241)"/>
<defs>
<linearGradient id="paint0_linear_3813_18241" x1="24.0049" y1="22.1602" x2="24.0049" y2="35.2702" gradientUnits="userSpaceOnUse">
<stop stop-color="#039855"/>
<stop offset="1" stop-color="#12B76A"/>
</linearGradient>
<linearGradient id="paint1_linear_3813_18241" x1="24" y1="9.68994" x2="24" y2="39.63" gradientUnits="userSpaceOnUse">
<stop stop-color="#039855"/>
<stop offset="1" stop-color="#12B76A"/>
</linearGradient>
</defs>
</svg>
