<svg width="48" height="48" viewBox="0 0 48 48" fill="none" xmlns="http://www.w3.org/2000/svg">
<path d="M48 33.5674C48 35.0615 47.1673 36.4316 45.8408 37.1191L26.624 47.0791C25.5052 47.6589 24.1787 47.6769 23.0439 47.1289L2.26074 37.0918C0.878754 36.4243 0.000174403 35.0249 0 33.4902V0H48V33.5674Z" fill="url(#paint0_linear_4398_30419)"/>
<path d="M23.0986 9.87626C23.4618 9.12031 24.5382 9.12031 24.9014 9.87626L27.8151 15.9413C27.9609 16.2448 28.2496 16.4545 28.5832 16.4994L35.2518 17.3963C36.083 17.5081 36.4156 18.5318 35.8089 19.1108L30.9411 23.7562C30.6975 23.9886 30.5873 24.3279 30.6477 24.6591L31.8554 31.2785C32.0059 32.1035 31.1351 32.7362 30.3969 32.3381L24.4747 29.144C24.1784 28.9842 23.8216 28.9842 23.5253 29.144L17.6031 32.3381C16.8649 32.7362 15.9941 32.1035 16.1446 31.2785L17.3523 24.6591C17.4127 24.3279 17.3025 23.9886 17.0589 23.7562L12.1911 19.1108C11.5844 18.5318 11.917 17.5081 12.7482 17.3963L19.4168 16.4994C19.7504 16.4545 20.0391 16.2448 20.1849 15.9413L23.0986 9.87626Z" fill="white"/>
<defs>
<linearGradient id="paint0_linear_4398_30419" x1="3.25998e-07" y1="29.7046" x2="48" y2="29.7046" gradientUnits="userSpaceOnUse">
<stop stop-color="#FF005C"/>
<stop offset="1" stop-color="#FB5299"/>
</linearGradient>
</defs>
</svg>
