<svg width="40" height="40" viewBox="0 0 40 40" fill="none" xmlns="http://www.w3.org/2000/svg">
  <rect x="0.5" y="0.5" width="39" height="39" rx="7.5" stroke="#98A2B3"/>
  <path d="M30 8H10C9.46957 8 8.96086 8.21071 8.58579 8.58579C8.21071 8.96086 8 9.46957 8 10V30C8 30.5304 8.21071 31.0391 8.58579 31.4142C8.96086 31.7893 9.46957 32 10 32H30C30.5304 32 31.0391 31.7893 31.4142 31.4142C31.7893 31.0391 32 30.5304 32 30V10C32 9.46957 31.7893 8.96086 31.4142 8.58579C31.0391 8.21071 30.5304 8 30 8Z" stroke="#344054" stroke-width="2" stroke-linecap="round" stroke-linejoin="round"/>
  <path d="M32 28.3333L24.6667 21.6667L18 27.6667L13.3333 23.6667L8 27.6667M16 19.6667C16.8841 19.6667 17.7319 19.3155 18.357 18.6904C18.9821 18.0652 19.3333 17.2174 19.3333 16.3333C19.3333 15.4493 18.9821 14.6014 18.357 13.9763C17.7319 13.3512 16.8841 13 16 13C15.1159 13 14.2681 13.3512 13.643 13.9763C13.0179 14.6014 12.6667 15.4493 12.6667 16.3333C12.6667 17.2174 13.0179 18.0652 13.643 18.6904C14.2681 19.3155 15.1159 19.6667 16 19.6667Z" stroke="#344054" stroke-width="2" stroke-linecap="round" stroke-linejoin="round"/>
  <rect x="22" y="5" width="14" height="14" rx="7" fill="#2563EB"/>
  <path d="M27.9247 16H30.0713C30.3664 16 30.6079 15.7141 30.6079 15.3647V12.1882H31.4612C31.9388 12.1882 32.1803 11.5021 31.8422 11.1018L29.379 8.18579C29.3294 8.1269 29.2704 8.08017 29.2055 8.04829C29.1405 8.01641 29.0709 8 29.0007 8C28.9304 8 28.8608 8.01641 28.7959 8.04829C28.7309 8.08017 28.672 8.1269 28.6223 8.18579L26.1591 11.1018C25.821 11.5021 26.0571 12.1882 26.5348 12.1882H27.388V15.3647C27.388 15.7141 27.6295 16 27.9247 16Z" fill="white"/>
</svg>
