<svg width="22" height="22" viewBox="0 0 22 22" fill="none" xmlns="http://www.w3.org/2000/svg">
  <path d="M18.5618 6C18.6155 5.69354 18.6015 5.37903 18.5208 5.07857C18.44 4.7781 18.2944 4.49895 18.0943 4.26071C17.8942 4.02248 17.6444 3.83093 17.3624 3.69951C17.0803 3.5681 16.773 3.5 16.4618 3.5H5.53784C5.22671 3.5 4.91935 3.5681 4.63733 3.69951C4.35531 3.83093 4.10548 4.02248 3.90536 4.26071C3.70524 4.49895 3.55969 4.7781 3.47892 5.07857C3.39816 5.37903 3.38414 5.69354 3.43784 6M16.4998 3.5C16.5278 3.24 16.5428 3.111 16.5428 3.004C16.5439 2.50969 16.3619 2.0325 16.0319 1.66446C15.7019 1.29643 15.2473 1.06364 14.7558 1.011C14.6498 1 14.5198 1 14.2598 1H7.73984C7.47984 1 7.34884 1 7.24284 1.011C6.75134 1.06364 6.29675 1.29643 5.96676 1.66446C5.63677 2.0325 5.45476 2.50969 5.45584 3.004C5.45584 3.111 5.46984 3.241 5.49884 3.5M1.38384 12.793C0.936841 9.629 0.713841 8.048 1.66184 7.023C2.60984 6 4.29784 6 7.67184 6H14.3278C17.7018 6 19.3898 6 20.3378 7.024C21.2858 8.048 21.0618 9.629 20.6158 12.793L20.1938 15.793C19.8438 18.273 19.6688 19.514 18.7718 20.257C17.8748 21 16.5518 21 13.9048 21H8.09484C5.44884 21 4.12484 21 3.22784 20.257C2.33084 19.514 2.15584 18.274 1.80584 15.793L1.38384 12.793Z" stroke="#0A347D" stroke-width="1.5"/>
  <path d="M15.5 12C16.3284 12 17 11.3284 17 10.5C17 9.67157 16.3284 9 15.5 9C14.6716 9 14 9.67157 14 10.5C14 11.3284 14.6716 12 15.5 12Z" stroke="#0A347D" stroke-width="1.5"/>
  <path d="M18.9997 19L16.1157 16.851C15.1857 16.159 13.7997 16.09 12.7757 16.685L12.5097 16.84C11.7977 17.254 10.8297 17.185 10.2157 16.676L6.37668 13.499C5.61068 12.865 4.38168 12.831 3.56668 13.421L2.24268 14.381" stroke="#0A347D" stroke-width="1.5" stroke-linecap="round"/>
</svg>
