<svg width="14" height="14" viewBox="0 0 14 14" fill="none" xmlns="http://www.w3.org/2000/svg">
  <path d="M10.24 10.24C9.3076 10.9507 8.17224 11.3445 7 11.3636C3.18182 11.3636 1 7 1 7C1.67849 5.73558 2.61953 4.63088 3.76 3.76M5.85455 2.76727C6.23 2.67939 6.6144 2.63546 7 2.63636C10.8182 2.63636 13 7 13 7C12.6689 7.61942 12.274 8.20258 11.8218 8.74M8.15636 8.15636C8.00656 8.31713 7.8259 8.44608 7.62517 8.53552C7.42445 8.62496 7.20776 8.67305 6.98805 8.67693C6.76833 8.6808 6.55009 8.64039 6.34633 8.55809C6.14258 8.47579 5.95748 8.35329 5.8021 8.1979C5.64671 8.04252 5.52421 7.85742 5.44191 7.65367C5.35961 7.44991 5.3192 7.23167 5.32307 7.01195C5.32695 6.79224 5.37504 6.57555 5.46448 6.37483C5.55392 6.1741 5.68287 5.99344 5.84364 5.84364M1 1L13 13" stroke="#344054" stroke-width="2" stroke-linecap="round" stroke-linejoin="round"/>
</svg>
