<svg width="16" height="16" viewBox="0 0 16 16" fill="none" xmlns="http://www.w3.org/2000/svg">
<path d="M13.5533 11.7713C13.6266 11.5273 13.6666 11.2679 13.6666 10.9999V4.99992C13.6666 4.29267 13.3856 3.6144 12.8855 3.1143C12.3854 2.6142 11.7072 2.33325 10.9999 2.33325H4.99992C4.29267 2.33325 3.6144 2.6142 3.1143 3.1143C2.6142 3.6144 2.33325 4.29267 2.33325 4.99992V11.0466C2.34549 11.7457 2.63183 12.4121 3.13061 12.9021C3.62939 13.3922 4.30069 13.6667 4.99992 13.6666H10.9999L11.0779 13.6653M13.5533 11.7713L13.4946 11.7019L11.8506 9.71792C11.7258 9.56742 11.5695 9.44619 11.3927 9.36282C11.2159 9.27944 11.023 9.23596 10.8275 9.23545C10.632 9.23494 10.4388 9.27742 10.2616 9.35987C10.0844 9.44233 9.92744 9.56274 9.80192 9.71259L8.92725 10.7566L8.78459 10.9306M13.5533 11.7713C13.3915 12.3068 13.0655 12.7772 12.6213 13.1173C12.177 13.4573 11.6371 13.649 11.0779 13.6653M8.78459 10.9306L11.0159 13.5946L11.0779 13.6653M8.78459 10.9306L6.63325 8.36192C6.50811 8.21256 6.35174 8.09245 6.17517 8.01003C5.9986 7.92762 5.80611 7.88491 5.61125 7.88491C5.41639 7.88491 5.2239 7.92762 5.04733 8.01003C4.87076 8.09245 4.7144 8.21256 4.58925 8.36192L2.45192 10.9133L2.33392 11.0473" stroke="#667085" stroke-width="1.5" stroke-linecap="round" stroke-linejoin="round"/>
<path d="M10.0605 6.93921C10.6128 6.93921 11.0605 6.49149 11.0605 5.93921C11.0605 5.38692 10.6128 4.93921 10.0605 4.93921C9.50826 4.93921 9.06055 5.38692 9.06055 5.93921C9.06055 6.49149 9.50826 6.93921 10.0605 6.93921Z" fill="#667085"/>
</svg>
