<svg width="26" height="23" viewBox="0 0 26 23" fill="none" xmlns="http://www.w3.org/2000/svg">
<g clip-path="url(#clip0_3329_1780)">
<path d="M11.6128 19.7546C9.62809 17.574 5.21387 12.2891 5.21387 9.32051C5.21387 5.71884 8.48214 2.79919 12.5139 2.79919C16.5441 2.79919 19.8139 5.71884 19.8139 9.32051C19.8139 12.2891 15.3654 17.574 13.415 19.7546C12.9473 20.2743 12.0804 20.2743 11.6128 19.7546ZM12.5139 11.4943C13.856 11.4943 14.9472 10.5195 14.9472 9.32051C14.9472 8.12154 13.856 7.14674 12.5139 7.14674C11.1717 7.14674 10.0805 8.12154 10.0805 9.32051C10.0805 10.5195 11.1717 11.4943 12.5139 11.4943Z" fill="#475467"/>
</g>
<defs>
<clipPath id="clip0_3329_1780">
<rect width="14.6" height="17.3902" fill="white" transform="translate(5.21387 2.79919)"/>
</clipPath>
</defs>
</svg>
