<svg width="25" height="23" viewBox="0 0 25 23" fill="none" xmlns="http://www.w3.org/2000/svg">
<path d="M4.74083 4.83569H20.9744C22.5059 4.83569 23.2777 5.48371 23.2777 6.8017V16.0496C23.2777 17.3566 22.5059 18.0156 20.9744 18.0156H4.74083C3.20936 18.0156 2.4375 17.3566 2.4375 16.0496V6.8017C2.4375 5.48371 3.20936 4.83569 4.74083 4.83569ZM12.8515 14.2813L21.1092 8.20756C21.4032 7.98789 21.636 7.48266 21.2684 7.03235C20.9131 6.58203 20.2638 6.57105 19.835 6.84563L12.8515 11.0852L5.88024 6.84563C5.45143 6.57105 4.80209 6.58203 4.44679 7.03235C4.07924 7.48266 4.31202 7.98789 4.60606 8.20756L12.8515 14.2813Z" fill="#475467"/>
</svg>
