<svg width="25" height="23" viewBox="0 0 25 23" fill="none" xmlns="http://www.w3.org/2000/svg">
<g clip-path="url(#clip0_3329_1774)">
<path d="M3.74717 6.22686L6.24326 3.73311C6.41934 3.55625 6.62862 3.41594 6.85909 3.32021C7.08956 3.22448 7.33667 3.17523 7.58623 3.17529C8.09482 3.17529 8.57295 3.37451 8.93154 3.73311L11.6175 6.41904C11.7943 6.59512 11.9346 6.8044 12.0304 7.03487C12.1261 7.26534 12.1754 7.51245 12.1753 7.76201C12.1753 8.27061 11.9761 8.74873 11.6175 9.10732L9.65342 11.0714C10.1132 12.0847 10.7523 13.0066 11.5401 13.7925C12.3259 14.5822 13.2477 15.2237 14.2612 15.6862L16.2253 13.7222C16.4014 13.5453 16.6107 13.405 16.8411 13.3093C17.0716 13.2135 17.3187 13.1643 17.5683 13.1644C18.0769 13.1644 18.555 13.3636 18.9136 13.7222L21.6019 16.4058C21.7789 16.5822 21.9194 16.7918 22.0151 17.0227C22.1108 17.2536 22.16 17.5011 22.1597 17.7511C22.1597 18.2597 21.9604 18.7378 21.6019 19.0964L19.1104 21.5878C18.5386 22.162 17.7487 22.4878 16.9378 22.4878C16.7667 22.4878 16.6026 22.4737 16.4409 22.4456C13.2815 21.9253 10.1479 20.2448 7.61904 17.7183C5.09248 15.194 3.41435 12.0628 2.88701 8.89404C2.72764 7.92607 3.04873 6.92998 3.74717 6.22686Z" fill="#475467"/>
</g>
<defs>
<clipPath id="clip0_3329_1774">
<rect width="24.5035" height="21.9665" fill="white" transform="matrix(-1 0 0 1 24.5034 0.831543)"/>
</clipPath>
</defs>
</svg>
