<svg width="128" height="128" viewBox="0 0 128 128" fill="none" xmlns="http://www.w3.org/2000/svg">
  <path d="M34 112L85 64L109 88M34 112H94C103.941 112 112 103.941 112 94V64M34 112C24.0589 112 16 103.941 16 94V34C16 24.0589 24.0589 16 34 16H73M88 28.2129L100.271 16M100.271 16L112 27.6608M100.271 16V46M52 43C52 47.9706 47.9706 52 43 52C38.0294 52 34 47.9706 34 43C34 38.0294 38.0294 34 43 34C47.9706 34 52 38.0294 52 43Z" stroke="black" stroke-width="8" stroke-linecap="round" stroke-linejoin="round"/>
</svg>
