<svg width="526" height="220" viewBox="0 0 526 220" fill="none" xmlns="http://www.w3.org/2000/svg">
<path d="M347.03 41.37C335.88 41.37 326.83 32.33 326.83 21.17C326.83 10.02 335.87 0.970001 347.03 0.970001C358.18 0.970001 367.23 10.01 367.23 21.17C367.22 32.33 358.18 41.37 347.03 41.37Z" fill="#2563EB"/>
<path d="M327.54 55.24H365.79C366.65 55.24 367.35 55.94 367.35 56.8V178.95C367.35 200.94 349.53 218.76 327.54 218.76C326.68 218.76 325.98 218.06 325.98 217.2V56.8C325.99 55.93 326.68 55.24 327.54 55.24Z" fill="#2563EB"/>
<path d="M69.6599 219.09C33.5599 216.61 4.46994 188.22 0.909943 152.41C0.809943 151.48 0.729932 150.54 0.679932 149.59V121.75C0.679932 121.29 1.04993 120.92 1.50993 120.92H12.6699C23.6399 120.92 40.7799 133.03 40.7799 149.03C40.8099 149.12 40.8299 149.21 40.8399 149.31C42.9599 166.15 57.3699 179.22 74.7899 179.22C93.6599 179.22 109.01 163.87 109.01 145C109.01 126.62 94.4399 111.57 76.2299 110.81H40.4299C18.8999 110.81 1.36994 93.7 0.699936 72.33C0.689936 72.32 0.689936 72.32 0.699936 72.31C0.679936 71.89 0.679932 71.48 0.679932 71.06V2.59C0.679932 1.91 1.22994 1.38 1.90994 1.38C25.9799 1.38 41.7599 22.26 41.7599 40.17V70.65L76.3299 70.75C76.4199 70.75 76.5099 70.76 76.5999 70.76C115.26 71.68 146.7 102.31 148.92 140.64C151.57 186.36 115.33 222.22 69.6599 219.09Z" fill="#2563EB"/>
<path d="M232.88 1.07002C196.78 3.55002 167.69 31.94 164.13 67.75C164.03 68.68 163.95 69.62 163.9 70.57V98.41C163.9 98.87 164.27 99.24 164.73 99.24H175.89C186.86 99.24 204 87.13 204 71.13C204.03 71.04 204.05 70.95 204.06 70.85C206.18 54.01 220.59 40.94 238.01 40.94C256.88 40.94 272.23 56.29 272.23 75.16C272.23 93.54 257.66 108.59 239.45 109.35H203.65C182.12 109.35 164.59 126.46 163.92 147.83C163.91 147.84 163.91 147.84 163.92 147.85C163.9 148.27 163.9 148.68 163.9 149.1V217.57C163.9 218.25 164.45 218.78 165.13 218.78C189.2 218.78 204.98 197.9 204.98 179.99V149.51L239.55 149.41C239.64 149.41 239.73 149.4 239.82 149.4C278.48 148.48 309.92 117.85 312.14 79.52C314.79 33.8 278.54 -2.05998 232.88 1.07002Z" fill="#2563EB"/>
<path d="M128.1 1.17999H136.13C136.13 23.8 120.7 42.14 95.17 42.14H48.85C49.7 21.96 41.15 9.28999 27.03 1.17999H128.1Z" fill="#2563EB"/>
<path d="M525.32 0.720001L475.52 97.45C475.34 97.03 475.13 96.61 474.92 96.2L458.75 64.78L454.47 56.48L473.97 17.95C479.31 7.38001 490.14 0.720001 501.98 0.720001H525.32Z" fill="#D9187B"/>
<path d="M525.32 217.82H501.98C490.14 217.82 479.31 211.16 473.97 200.6L454.48 162.07L458.75 153.76L474.92 122.35C475.13 121.93 475.34 121.52 475.52 121.09L525.32 217.82Z" fill="#2563EB"/>
<path d="M470.05 110.46C469.89 113.3 469.14 116.09 467.81 118.69L451.64 150.1L450.02 153.26L424.97 202C419.97 211.71 409.96 217.82 399.04 217.82H374.73L430.61 109.27L374.73 0.720001H402.84C411.47 0.720001 419.46 5.95001 423.86 14.48L450.02 65.29L451.64 68.44L467.81 99.86C469.14 102.45 469.89 105.26 470.05 108.08C470.1 108.88 470.1 109.67 470.05 110.46Z" fill="#2563EB"/>
</svg>
