<svg width="88" height="36" viewBox="0 0 88 36" fill="none" xmlns="http://www.w3.org/2000/svg">
  <path d="M58.0943 6.69549C56.2241 6.69549 54.7061 5.20647 54.7061 3.36825C54.7061 1.53168 56.2224 0.0410156 58.0943 0.0410156C59.9645 0.0410156 61.4825 1.53004 61.4825 3.36825C61.4808 5.20647 59.9645 6.69549 58.0943 6.69549Z" fill="white"/>
  <path d="M54.8256 8.98047H61.2415C61.3857 8.98047 61.5031 9.09577 61.5031 9.23742V29.3573C61.5031 32.9794 58.5141 35.9146 54.8256 35.9146C54.6814 35.9146 54.564 35.7993 54.564 35.6577V9.23742C54.5656 9.09412 54.6814 8.98047 54.8256 8.98047Z" fill="white"/>
  <path d="M11.5703 35.9689C5.5151 35.5604 0.635714 30.8842 0.0385807 24.9857C0.0218073 24.8326 0.0083867 24.6777 0 24.5212V19.9356C0 19.8598 0.0620619 19.7989 0.13922 19.7989H2.01113C3.85117 19.7989 6.72614 21.7936 6.72614 24.429C6.73117 24.4438 6.73452 24.4587 6.7362 24.4751C7.0918 27.2489 9.50884 29.4017 12.4308 29.4017C15.5959 29.4017 18.1706 26.8734 18.1706 23.7652C18.1706 20.7377 15.7267 18.2588 12.6723 18.1336H6.66743C3.05611 18.1336 0.115737 15.3153 0.0033554 11.7954C0.00167806 11.7937 0.00167806 11.7937 0.0033554 11.7921C7.16712e-07 11.7229 0 11.6554 0 11.5862V0.30819C0 0.196184 0.0922556 0.108887 0.206315 0.108887C4.24367 0.108887 6.89052 3.54813 6.89052 6.49817V11.5187L12.6891 11.5351C12.7042 11.5351 12.7193 11.5368 12.7344 11.5368C19.219 11.6883 24.4925 16.7335 24.8649 23.047C25.3094 30.5778 19.2307 36.4845 11.5703 35.9689Z" fill="white"/>
  <path d="M38.9477 0.0577252C32.8925 0.466217 28.0132 5.14246 27.416 11.0409C27.3992 11.1941 27.3858 11.3489 27.3774 11.5054V16.091C27.3774 16.1668 27.4395 16.2278 27.5167 16.2278H29.3886C31.2286 16.2278 34.1036 14.2331 34.1036 11.5976C34.1086 11.5828 34.112 11.568 34.1136 11.5515C34.4692 8.77772 36.8863 6.6249 39.8082 6.6249C42.9734 6.6249 45.5481 9.15327 45.5481 12.2614C45.5481 15.2889 43.1042 17.7678 40.0498 17.893H34.0449C30.4336 17.893 27.4932 20.7113 27.3808 24.2312C27.3791 24.2329 27.3791 24.2329 27.3808 24.2345C27.3774 24.3037 27.3774 24.3713 27.3774 24.4404V35.7184C27.3774 35.8305 27.4697 35.9177 27.5838 35.9177C31.6211 35.9177 34.268 32.4785 34.268 29.5285V24.508L40.0665 24.4915C40.0816 24.4915 40.0967 24.4898 40.1118 24.4898C46.5964 24.3383 51.87 19.2931 52.2423 12.9796C52.6868 5.44883 46.6065 -0.457832 38.9477 0.0577252Z" fill="white"/>
  <path d="M21.3723 0.0756836H22.7192C22.7192 3.80153 20.1311 6.8224 15.8488 6.8224H8.07939C8.22197 3.49846 6.78784 1.41152 4.41943 0.0756836H21.3723Z" fill="white"/>
  <path d="M87.9997 0L79.6465 15.9328C79.6163 15.8637 79.5811 15.7945 79.5459 15.727L76.8336 10.5516L76.1157 9.18449L79.3865 2.83803C80.2822 1.097 82.0988 0 84.0848 0H87.9997Z" fill="#F30C60"/>
  <path d="M87.9995 35.7595H84.0846C82.0986 35.7595 80.282 34.6625 79.3863 32.9231L76.1172 26.5767L76.8334 25.2079L79.5457 20.0342C79.5809 19.965 79.6161 19.8975 79.6463 19.8267L87.9995 35.7595Z" fill="white"/>
  <path d="M78.7291 18.0758C78.7023 18.5436 78.5765 19.0031 78.3534 19.4314L75.6411 24.6051L75.3694 25.1256L71.1677 33.1538C70.329 34.7531 68.65 35.7595 66.8183 35.7595H62.7407L72.1137 17.8798L62.7407 0H67.4557C68.9033 0 70.2435 0.861459 70.9815 2.26647L75.3694 10.6356L75.6411 11.1545L78.3534 16.3298C78.5765 16.7564 78.7023 17.2193 78.7291 17.6838C78.7375 17.8155 78.7375 17.9457 78.7291 18.0758Z" fill="white"/>
</svg>
